Coordinates
version=1
nRows=6
nColumns=63
inDegrees=yes

Units are S.I. units (second, meters, Newtons, ...)
If the header above contains a line with 'inDegrees', this indicates whether rotational values are in degrees (yes) or radians (no).

endheader
time	pelvis_tilt	pelvis_list	pelvis_rotation	pelvis_tx	pelvis_ty	pelvis_tz	hip_flexion_r	hip_adduction_r	hip_rotation_r	knee_angle_r	knee_angle_r_beta	ankle_angle_r	subtalar_angle_r	mtp_angle_r	hip_flexion_l	hip_adduction_l	hip_rotation_l	knee_angle_l	knee_angle_l_beta	ankle_angle_l	subtalar_angle_l	mtp_angle_l	L5_S1_Flex_Ext	L5_S1_Lat_Bending	L5_S1_axial_rotation	L4_L5_Flex_Ext	L4_L5_Lat_Bending	L4_L5_axial_rotation	L3_L4_Flex_Ext	L3_L4_Lat_Bending	L3_L4_axial_rotation	L2_L3_Flex_Ext	L2_L3_Lat_Bending	L2_L3_axial_rotation	L1_L2_Flex_Ext	L1_L2_Lat_Bending	L1_L2_axial_rotation	L1_T12_Flex_Ext	L1_T12_Lat_Bending	L1_T12_axial_rotation	Abs_r3	Abs_r2	Abs_r1	Abs_t1	Abs_t2	neck_flexion	neck_bending	neck_rotation	arm_flex_r	arm_add_r	arm_rot_r	elbow_flex_r	pro_sup_r	wrist_flex_r	wrist_dev_r	arm_flex_l	arm_add_l	arm_rot_l	elbow_flex_l	pro_sup_l	wrist_flex_l	wrist_dev_l
     22.46666667	     -0.86781734	     -1.32895117	     -4.13044166	     -1.59826085	      0.86865126	      0.27164184	     -0.70820017	      3.09529399	      2.76409758	      5.31916114	      0.09283688	      5.37092106	    -16.55452455	      0.00000000	      0.84687100	     -3.21243166	     -5.55849459	      7.11100601	      0.12411047	      1.49543854	    -18.23729854	      0.00000000	      0.00193416	     -0.12576443	      0.11279126	      0.00359194	     -0.16726670	      0.11984071	      0.00317764	     -0.30578364	      0.11984071	      0.00221056	     -0.30578364	      0.09869235	      0.00179607	     -0.25645883	      0.09164289	      0.00110518	     -0.19480911	      0.08459344	      0.01381554	     -1.42267242	      0.62731112	      0.00000000	      0.00000000	     -0.00000000	      0.00000000	     -0.00000000	     -3.80785335	      7.43181802	    -36.96993783	     38.27293072	     31.32345586	      0.00000000	      5.00000014	     -4.62711936	      5.03159658	    -34.47859259	     43.20149074	     33.79919055	      0.00000000	      5.00000014
     22.50000000	     -0.84400945	     -1.16669513	     -4.30122515	     -1.59825856	      0.86866788	      0.27117392	     -0.74202947	      2.91583509	      3.11443129	      5.30829267	      0.09264718	      5.71376788	    -16.62730449	      0.00000000	      1.31145190	     -3.21144919	     -6.08322180	      8.15518959	      0.14233491	      1.67717362	    -18.28001851	      0.00000000	      0.00334762	     -0.13006578	      0.10626356	      0.00621687	     -0.17298749	      0.11290504	      0.00549981	     -0.31624194	      0.11290504	      0.00382600	     -0.31624194	      0.09298062	      0.00310860	     -0.26523014	      0.08633914	      0.00191283	     -0.20147189	      0.07969767	      0.02391172	     -1.47133011	      0.59100606	      0.00000000	      0.00000000	     -0.00000000	      0.00000000	     -0.00000000	     -3.68400496	      7.39720592	    -37.14957270	     38.26469541	     31.27895974	      0.00000000	      5.00000014	     -4.69268681	      5.00416195	    -34.33101868	     43.04969021	     33.79501292	      0.00000000	      5.00000014
     22.53333333	     -0.87138530	     -1.35239273	     -4.52926797	     -1.59847590	      0.86880991	      0.27006419	     -0.69360868	      3.03468497	      3.37371461	      5.31093135	      0.09269324	      5.70452679	    -16.63436654	      0.00000000	      1.66042477	     -3.51496779	     -6.58393843	      8.95252404	      0.15625102	      1.94439881	    -18.25692787	      0.00000000	      0.00257061	     -0.10657670	      0.12216948	      0.00477388	     -0.14174701	      0.12980507	      0.00422326	     -0.25913059	      0.12980507	      0.00293795	     -0.25913059	      0.10689829	      0.00238707	     -0.21733121	      0.09926270	      0.00146885	     -0.16508731	      0.09162711	      0.01836163	     -1.20561695	      0.67946998	      0.00000000	      0.00000000	     -0.00000000	      0.00000000	     -0.00000000	     -3.55799305	      7.12414291	    -37.21499946	     38.09133028	     31.24884955	      0.00000000	      5.00000014	     -4.70689618	      5.23011182	    -34.27228320	     43.04724269	     33.78079658	      0.00000000	      5.00000014
     22.56666667	     -0.94248248	     -1.81262859	     -4.68908458	     -1.59877913	      0.86906962	      0.26846152	     -0.60030727	      3.39563347	      3.52962871	      5.30367081	      0.09256652	      5.42714691	    -16.59375333	      0.00000000	      1.77118632	     -4.01816955	     -6.93001779	      9.22348272	      0.16098014	      2.21530970	    -18.18915960	      0.00000000	      0.00156906	     -0.06374638	      0.14897979	      0.00291390	     -0.08478268	      0.15829103	      0.00257781	     -0.15499294	      0.15829103	      0.00179328	     -0.15499294	      0.13035732	      0.00145703	     -0.12999161	      0.12104608	      0.00089656	     -0.09874314	      0.11173485	      0.01120764	     -0.72111175	      0.82858092	      0.00000000	      0.00000000	     -0.00000000	      0.00000000	     -0.00000000	     -3.48261302	      6.65200865	    -37.05298962	     37.80465920	     31.24604729	      0.00000000	      5.00000014	     -4.66868731	      5.69304883	    -34.40089696	     43.17369718	     33.74252296	      0.00000000	      5.00000014
     22.60000000	     -1.04599674	     -2.37331147	     -4.86213508	     -1.59914071	      0.86940725	      0.26674316	     -0.50615600	      3.84764857	      3.78110400	      5.20975158	      0.09092732	      4.99580968	    -16.63744214	      0.00000000	      1.71614553	     -4.54622830	     -7.31350433	      9.09533028	      0.15874346	      2.43353442	    -18.06741366	      0.00000000	      0.00169976	     -0.01759146	      0.18133954	      0.00315663	     -0.02339665	      0.19267327	      0.00279254	     -0.04277189	      0.19267327	      0.00194266	     -0.04277189	      0.15867210	      0.00157840	     -0.03587251	      0.14733838	      0.00097125	     -0.02724918	      0.13600466	      0.01214124	     -0.19899817	      1.00855614	      0.00000000	      0.00000000	     -0.00000000	      0.00000000	     -0.00000000	     -3.53718867	      5.83987382	    -35.36403783	     37.37107029	     31.33023510	      0.00000000	      5.00000014	     -4.53253436	      6.49860858	    -35.67735308	     43.44472833	     33.47221186	      0.00000000	      5.00000014
     22.63333333	     -1.13426688	     -2.89013690	     -4.80191156	     -1.59940102	      0.86979400	      0.26517533	     -0.37890669	      4.27680393	      3.69339556	      5.23099535	      0.09129809	      4.60172342	    -16.55861022	      0.00000000	      1.57425124	     -4.95803516	     -7.33279873	      8.65427547	      0.15104560	      2.46604178	    -18.12311681	      0.00000000	      0.00056590	      0.02741710	      0.18600912	      0.00105094	      0.03646475	      0.19763469	      0.00092972	      0.06666195	      0.19763469	      0.00064677	      0.06666195	      0.16275798	      0.00052550	      0.05590896	      0.15113241	      0.00032336	      0.04246909	      0.13950684	      0.00404220	      0.31014777	      1.03452691	      0.00000000	      0.00000000	     -0.00000000	      0.00000000	     -0.00000000	     -3.49696893	      5.43121011	    -35.22097715	     37.09775242	     31.32085164	      0.00000000	      5.00000014	     -4.54736524	      6.97965313	    -35.77642787	     43.71822494	     33.44083207	      0.00000000	      5.00000014
